<svg width="156" height="42" viewBox="0 0 156 42" fill="none" xmlns="http://www.w3.org/2000/svg">
<g style="mix-blend-mode:luminosity">
<circle cx="135" cy="21" r="21" fill="white"/>
</g>
<g style="mix-blend-mode:luminosity">
<circle cx="78" cy="21" r="21" fill="white"/>
</g>
<g style="mix-blend-mode:luminosity">
<circle cx="21" cy="21" r="21" fill="white"/>
</g>
<path d="M25.8904 22.1134L26.4377 18.5392H23.0087V16.216C23.0087 15.2387 23.489 14.2838 25.0247 14.2838H26.5829V11.2401C26.5829 11.2401 25.1699 11 23.8129 11C20.9871 11 19.1386 12.7145 19.1386 15.8139V18.5392H16V22.1134H19.1386V30.7584H23.0031V22.1134H25.8904Z" fill="#337FFF"/>
<path d="M89.9063 13.3716C89.1412 13.7178 88.3035 13.9244 87.477 14.064C87.8679 13.997 88.4432 13.2934 88.6721 13.003C89.024 12.5674 89.3144 12.0703 89.4763 11.5342C89.4986 11.4895 89.5154 11.4393 89.4707 11.4058C89.4205 11.3834 89.3814 11.3946 89.3423 11.4169C88.4264 11.9084 87.477 12.2658 86.4606 12.5171C86.3768 12.5394 86.3154 12.5171 86.2596 12.4668C86.1758 12.3719 86.0976 12.2826 86.0083 12.21C85.5838 11.847 85.1259 11.5621 84.6121 11.3555C83.9364 11.0819 83.1992 10.9646 82.4732 11.0093C81.7639 11.0539 81.0715 11.255 80.446 11.5845C79.8149 11.914 79.2565 12.3719 78.8097 12.9192C78.3462 13.4888 78.0055 14.1646 77.8324 14.8794C77.6648 15.5663 77.676 16.2476 77.7821 16.9457C77.7989 17.063 77.7877 17.0742 77.6816 17.063C73.7277 16.4766 70.4495 15.0581 67.7912 12.0312C67.674 11.8972 67.6125 11.8972 67.5176 12.0424C66.356 13.7848 66.92 16.5883 68.372 17.9677C68.5675 18.152 68.763 18.3363 68.9808 18.5038C68.9026 18.5206 67.9364 18.4145 67.0708 17.9677C66.9535 17.8951 66.8977 17.9342 66.8865 18.0682C66.8754 18.2581 66.8921 18.4312 66.92 18.6323C67.1434 20.4026 68.3664 22.0389 70.0474 22.6755C70.2485 22.7593 70.4663 22.8319 70.6841 22.871C70.3043 22.9548 69.9078 23.0162 68.8132 22.9268C68.6792 22.8989 68.6233 22.9715 68.6792 23.1C69.5001 25.345 71.2816 26.0151 72.6108 26.3949C72.7895 26.4284 72.9682 26.4284 73.1469 26.4675C73.1357 26.4842 73.1245 26.4842 73.1134 26.501C72.6722 27.1767 71.142 27.6738 70.4272 27.9251C69.1315 28.3774 67.7186 28.5841 66.3504 28.45C66.1326 28.4165 66.0823 28.4221 66.0265 28.45C65.9651 28.4891 66.0209 28.5394 66.0879 28.5952C66.3672 28.7795 66.6464 28.9415 66.9368 29.0978C67.808 29.5614 68.7127 29.9244 69.6621 30.1868C74.5654 31.5383 80.083 30.5443 83.7632 26.8919C86.6505 24.0214 87.6669 20.0619 87.6669 16.0968C87.6669 15.9405 87.8512 15.8567 87.9573 15.7729C88.7112 15.2089 89.3144 14.5332 89.8784 13.7792C90.0068 13.6117 90.0068 13.4609 90.0068 13.3995C90.0068 13.3883 90.0068 13.3771 90.0068 13.3771C90.0068 13.3101 90.0068 13.3269 89.9063 13.3716Z" fill="#33CCFF"/>
<path d="M140.112 14.5295C139.47 14.5295 138.956 15.0489 138.956 15.6856C138.956 16.3278 139.475 16.8416 140.112 16.8416C140.754 16.8416 141.268 16.3222 141.268 15.6856C141.274 15.0489 140.754 14.5295 140.112 14.5295Z" fill="url(#paint0_linear_4_384)"/>
<path d="M134.963 16.0149C132.282 16.0149 130.099 18.1985 130.099 20.8791C130.099 23.5597 132.282 25.7433 134.963 25.7433C137.644 25.7433 139.827 23.5597 139.827 20.8791C139.827 18.1985 137.644 16.0149 134.963 16.0149ZM134.963 24.0009C133.243 24.0009 131.847 22.6047 131.847 20.8847C131.847 19.1646 133.243 17.7685 134.963 17.7685C136.683 17.7685 138.079 19.1646 138.079 20.8847C138.079 22.5992 136.683 24.0009 134.963 24.0009Z" fill="url(#paint1_linear_4_384)"/>
<path d="M138.828 30.764H130.936C127.664 30.764 125 28.1001 125 24.8275V16.9365C125 13.6639 127.664 11 130.936 11H138.828C142.1 11 144.764 13.6639 144.764 16.9365V24.8275C144.758 28.1001 142.1 30.764 138.828 30.764ZM130.936 12.8597C128.691 12.8597 126.86 14.6858 126.86 16.9365V24.8275C126.86 27.0725 128.686 28.9043 130.936 28.9043H138.828C141.078 28.9043 142.904 27.0781 142.904 24.8275V16.9365C142.904 14.6914 141.078 12.8597 138.828 12.8597H130.936Z" fill="url(#paint2_linear_4_384)"/>
<defs>
<linearGradient id="paint0_linear_4_384" x1="131.061" y1="7.02476" x2="148.981" y2="24.1772" gradientUnits="userSpaceOnUse">
<stop offset="0.0011048" stop-color="#FBE18A"/>
<stop offset="0.2094" stop-color="#FCBB45"/>
<stop offset="0.3765" stop-color="#F75274"/>
<stop offset="0.5238" stop-color="#D53692"/>
<stop offset="0.7394" stop-color="#8F39CE"/>
<stop offset="1" stop-color="#5B4FE9"/>
</linearGradient>
<linearGradient id="paint1_linear_4_384" x1="126.004" y1="12.3073" x2="143.924" y2="29.4598" gradientUnits="userSpaceOnUse">
<stop offset="0.0011048" stop-color="#FBE18A"/>
<stop offset="0.2094" stop-color="#FCBB45"/>
<stop offset="0.3765" stop-color="#F75274"/>
<stop offset="0.5238" stop-color="#D53692"/>
<stop offset="0.7394" stop-color="#8F39CE"/>
<stop offset="1" stop-color="#5B4FE9"/>
</linearGradient>
<linearGradient id="paint2_linear_4_384" x1="125.965" y1="12.348" x2="143.885" y2="29.5003" gradientUnits="userSpaceOnUse">
<stop offset="0.0011048" stop-color="#FBE18A"/>
<stop offset="0.2094" stop-color="#FCBB45"/>
<stop offset="0.3765" stop-color="#F75274"/>
<stop offset="0.5238" stop-color="#D53692"/>
<stop offset="0.7394" stop-color="#8F39CE"/>
<stop offset="1" stop-color="#5B4FE9"/>
</linearGradient>
</defs>
</svg>
