<svg width="146" height="50" viewBox="0 0 146 50" fill="none" xmlns="http://www.w3.org/2000/svg">
<g clip-path="url(#clip0_31_659)">
<path d="M22.5548 24.2962H28.8274V33.1062C26.8702 33.735 24.3991 34.0799 21.8303 34.0799C11.4195 34.0799 5.30074 25.1647 5.30074 16.4579C5.30074 7.91841 10.8353 1.92846 18.5567 1.92846C23.4427 1.92846 26.2857 3.58371 28.8292 5.88942V8.76377L33.5983 3.99462C30.5818 1.95375 26.2138 0.0141602 19.9705 0.0141602C6.26472 0.0141602 0 9.81946 0 17.8776C0 29.3475 8.35431 36.2571 18.8529 36.2571C23.9434 36.2571 28.4632 35.48 33.6842 34.0273V24.9252C33.6842 24.4597 33.8887 24.1404 34.1944 23.86L35.8419 22.2125H24.6542L22.5548 24.2962Z" fill="url(#paint0_linear_31_659)"/>
<path d="M50.6538 12.3237C42.7649 12.3237 37.877 18.0882 37.877 24.2069C37.877 29.4882 41.8148 35.7586 49.793 35.7586C57.4677 35.7586 62.1765 29.9829 62.1765 23.7571C62.1765 17.9578 57.5748 12.3259 50.6538 12.3259V12.3237ZM49.3449 14.0044C54.9068 14.0044 57.3838 21.2506 57.3838 26.419C57.3838 34.1053 51.6176 34.2572 50.9282 34.2572C48.2895 34.2572 46.4452 32.6625 45.0647 30.5708C43.8495 28.643 42.6617 25.0616 42.6617 21.5622C42.6617 18.0764 43.8026 16.3743 45.5983 15.1222C47.0667 14.1835 48.4415 14.0044 49.343 14.0044H49.3449Z" fill="url(#paint1_linear_31_659)"/>
<path d="M102.223 12.3218C95.3326 12.3218 91.6053 16.684 91.6053 21.5544C91.6053 25.2622 94.2615 29.4452 99.7414 29.4452H101.128C101.128 29.4452 100.75 30.3624 100.748 31.2485C100.748 32.5554 101.218 33.2893 102.214 34.4188C92.7852 34.9933 88.9956 38.7966 88.9956 42.8842C88.9956 46.4637 92.4232 49.9865 99.6264 49.9865C108.154 49.9865 112.571 45.2522 112.571 40.6059C112.571 37.3304 110.939 35.5349 106.806 32.4385C105.591 31.494 105.356 30.8925 105.356 30.1856C105.356 29.173 105.961 28.5028 106.183 28.2499C106.575 27.837 107.252 27.3658 107.506 27.1399C108.894 25.9636 110.855 24.2229 110.855 20.7485C110.855 18.3649 109.864 16.3143 107.605 14.3942H110.362L112.434 12.3222H102.223V12.3218ZM100.322 13.8719C101.572 13.8719 102.616 14.314 103.718 15.2312C104.941 16.3334 106.894 19.2954 106.894 22.9604C106.894 26.9156 103.821 27.9983 102.158 27.9983C101.344 27.9983 100.369 27.7705 99.5431 27.2057C97.7086 26.0161 95.8876 22.8494 95.8876 19.0812C95.8876 15.681 97.9129 13.8719 100.322 13.8719ZM103.05 35.9203C103.576 35.9203 103.954 35.9633 103.954 35.9633C103.954 35.9633 105.194 36.8494 106.061 37.5113C108.078 39.1062 109.336 40.3253 109.336 42.4968C109.336 45.4822 106.567 47.8229 102.082 47.8229C97.1594 47.8229 93.3969 45.5308 93.3969 41.7881C93.3969 38.6877 95.9752 36.0194 103.05 35.9203Z" fill="url(#paint2_linear_31_659)"/>
<path d="M113.926 35.0749H123.385L124.826 33.6341L122.113 33.2952C121.383 33.2056 120.949 32.5747 120.949 31.9632V3.39301C120.949 2.83022 121.21 2.542 121.4 2.35875L123.106 0.652832H115.04L112.941 2.75213H116.076V32.3466C116.076 32.7673 115.944 33.0535 115.659 33.3476L113.926 35.0749Z" fill="url(#paint3_linear_31_659)"/>
<path d="M136.201 12.3237C130.92 12.3237 125.309 16.349 125.309 23.5758C125.309 29.5443 129.334 35.7586 136.855 35.7586C138.731 35.7586 140.275 35.5174 141.722 34.8533C143.274 34.1386 144.767 32.978 145.858 31.5194C143.8 32.5573 142.121 33.2389 139.891 33.2389C135.653 33.2389 131.568 30.1815 130.138 24.5613L145.108 18.5108C144.243 15.4281 141.805 12.3237 136.203 12.3237H136.201ZM135.223 13.9771C138.057 13.9771 140.105 16.3081 140.105 18.1328C140.105 18.7229 139.735 19.0345 139.003 19.3227L129.801 23.0441C129.801 23.0441 129.552 21.8855 129.552 20.6333C129.552 15.3812 133.35 13.9771 135.223 13.9771Z" fill="url(#paint4_linear_31_659)"/>
<path d="M77.4228 12.3237C69.5339 12.3237 64.646 18.0882 64.646 24.2069C64.646 29.4882 68.5838 35.7586 76.5621 35.7586C84.2367 35.7586 88.9455 29.9829 88.9455 23.7571C88.9455 17.9578 84.3438 12.3259 77.4228 12.3259V12.3237ZM76.114 14.0044C81.676 14.0044 84.1528 21.2506 84.1528 26.419C84.1528 34.1053 78.3866 34.2572 77.6972 34.2572C75.0585 34.2572 73.2144 32.6625 71.8338 30.5708C70.6187 28.643 69.4307 25.0616 69.4307 21.5622C69.4307 18.0764 70.5717 16.3743 72.3674 15.1222C73.8357 14.1835 75.2106 14.0044 76.112 14.0044H76.114Z" fill="url(#paint5_linear_31_659)"/>
</g>
<defs>
<linearGradient id="paint0_linear_31_659" x1="17.8318" y1="-0.0884336" x2="17.8318" y2="36.2551" gradientUnits="userSpaceOnUse">
<stop stop-color="#196EEF"/>
<stop offset="0.5" stop-color="#186DEE"/>
<stop offset="1" stop-color="#1065E7"/>
</linearGradient>
<linearGradient id="paint1_linear_31_659" x1="49.9383" y1="12.2682" x2="49.9383" y2="35.7685" gradientUnits="userSpaceOnUse">
<stop stop-color="#DE5744"/>
<stop offset="0.5" stop-color="#DB4632"/>
<stop offset="1" stop-color="#D13D29"/>
</linearGradient>
<linearGradient id="paint2_linear_31_659" x1="100.697" y1="12.2682" x2="100.697" y2="50.0008" gradientUnits="userSpaceOnUse">
<stop stop-color="#1A6FEF"/>
<stop offset="0.25" stop-color="#1E72EF"/>
<stop offset="0.5" stop-color="#166BEC"/>
<stop offset="0.75" stop-color="#1267E9"/>
<stop offset="1" stop-color="#1063E5" stop-opacity="0.87"/>
</linearGradient>
<linearGradient id="paint3_linear_31_659" x1="118.797" y1="0.571807" x2="118.797" y2="35.108" gradientUnits="userSpaceOnUse">
<stop stop-color="#0AA561"/>
<stop offset="0.5" stop-color="#009B58"/>
<stop offset="1" stop-color="#00914B"/>
</linearGradient>
<linearGradient id="paint4_linear_31_659" x1="135.498" y1="12.2682" x2="135.498" y2="35.7038" gradientUnits="userSpaceOnUse">
<stop stop-color="#DE5644"/>
<stop offset="0.5" stop-color="#DA4531"/>
<stop offset="1" stop-color="#CE3A28"/>
</linearGradient>
<linearGradient id="paint5_linear_31_659" x1="76.7081" y1="12.3193" x2="76.7081" y2="35.722" gradientUnits="userSpaceOnUse">
<stop stop-color="#FFC01A"/>
<stop offset="0.5" stop-color="#FFBA03"/>
<stop offset="1" stop-color="#FFB300"/>
</linearGradient>
<clipPath id="clip0_31_659">
<rect width="145.858" height="50" fill="white"/>
</clipPath>
</defs>
</svg>
