<svg width="117" height="40" viewBox="0 0 117 40" fill="none" xmlns="http://www.w3.org/2000/svg">
<rect width="117" height="40" fill="#1E1E1E"/>
<g id="Job landing Page Design" clip-path="url(#clip0_0_1)">
<rect width="1920" height="3315" transform="translate(-340 -1723)" fill="white"/>
<g id="Group 18">
<rect id="Rectangle 3" x="-39.5" y="-39.5" width="647" height="391" rx="7.5" stroke="#E8E8E8"/>
<g id="google-1-1 1" clip-path="url(#clip1_0_1)">
<g id="Group">
<path id="Vector" d="M18.0439 19.4368H23.0619V26.4848C21.4962 26.9879 19.5193 27.2638 17.4643 27.2638C9.13566 27.2638 4.24064 20.1317 4.24064 13.1662C4.24064 6.33463 8.66828 1.54267 14.8454 1.54267C18.7542 1.54267 21.0286 2.86687 23.0634 4.71144V7.01092L26.8787 3.1956C24.4655 1.5629 20.9711 0.0112305 15.9764 0.0112305C5.01182 0.0112305 4.57764e-05 7.85547 4.57764e-05 14.302C4.57764e-05 23.4779 6.6835 29.0056 15.0824 29.0056C19.1547 29.0056 22.7706 28.3839 26.9474 27.2217V19.94C26.9474 19.5677 27.111 19.3122 27.3556 19.0879L28.6735 17.7699H19.7234L18.0439 19.4368Z" fill="url(#paint0_linear_0_1)"/>
<path id="Vector_2" d="M40.523 9.85864C34.2119 9.85864 30.3016 14.4702 30.3016 19.3652C30.3016 23.5902 33.4519 28.6066 39.8345 28.6066C45.9742 28.6066 49.7412 23.986 49.7412 19.0053C49.7412 14.3659 46.0599 9.86035 40.523 9.86035V9.85864ZM39.4759 11.2031C43.9255 11.2031 45.9071 17.0001 45.9071 21.1348C45.9071 27.2839 41.2941 27.4054 40.7426 27.4054C38.6316 27.4054 37.1562 26.1296 36.0518 24.4563C35.0797 22.9141 34.1294 20.049 34.1294 17.2494C34.1294 14.4607 35.0422 13.0991 36.4787 12.0974C37.6534 11.3465 38.7533 11.2031 39.4744 11.2031H39.4759Z" fill="url(#paint1_linear_0_1)"/>
<path id="Vector_3" d="M81.7783 9.85718C76.2662 9.85718 73.2844 13.3469 73.2844 17.2433C73.2844 20.2095 75.4094 23.5559 79.7933 23.5559H80.9024C80.9024 23.5559 80.6004 24.2897 80.5988 24.9986C80.5988 26.0441 80.9743 26.6312 81.7718 27.5348C74.2283 27.9944 71.1967 31.037 71.1967 34.3071C71.1967 37.1707 73.9387 39.9889 79.7013 39.9889C86.5234 39.9889 90.0567 36.2015 90.0567 32.4845C90.0567 29.864 88.7512 28.4277 85.4453 25.9506C84.4732 25.195 84.2847 24.7138 84.2847 24.1483C84.2847 23.3381 84.7692 22.802 84.9468 22.5997C85.2599 22.2694 85.8021 21.8924 86.0046 21.7117C87.1154 20.7707 88.6842 19.378 88.6842 16.5986C88.6842 14.6917 87.8911 13.0512 86.084 11.5151H88.2901L89.9477 9.85752H81.7783V9.85718ZM80.2578 11.0973C81.258 11.0973 82.0929 11.451 82.9747 12.1847C83.9529 13.0665 85.5157 15.4361 85.5157 18.3681C85.5157 21.5322 83.0573 22.3984 81.7269 22.3984C81.0757 22.3984 80.2954 22.2161 79.6346 21.7643C78.1671 20.8126 76.7103 18.2792 76.7103 15.2647C76.7103 12.5446 78.3305 11.0973 80.2578 11.0973ZM82.4404 28.736C82.8609 28.736 83.1633 28.7704 83.1633 28.7704C83.1633 28.7704 84.1557 29.4793 84.8489 30.0088C86.4629 31.2847 87.4692 32.26 87.4692 33.9972C87.4692 36.3855 85.2538 38.2581 81.6659 38.2581C77.7277 38.2581 74.7177 36.4244 74.7177 33.4303C74.7177 30.9499 76.7804 28.8153 82.4404 28.736Z" fill="url(#paint2_linear_0_1)"/>
<path id="Vector_4" d="M91.1412 28.0599H98.7079L99.8607 26.9072L97.6905 26.6361C97.1063 26.5645 96.759 26.0597 96.759 25.5705V2.71436C96.759 2.26413 96.9678 2.03355 97.1203 1.88695L98.4852 0.522217H92.0323L90.3529 2.20165H92.8611V25.8773C92.8611 26.2138 92.7552 26.4428 92.5277 26.678L91.1412 28.0599Z" fill="url(#paint3_linear_0_1)"/>
<path id="Vector_5" d="M108.961 9.85864C104.736 9.85864 100.247 13.0789 100.247 18.8603C100.247 23.6351 103.467 28.6066 109.484 28.6066C110.984 28.6066 112.22 28.4136 113.377 27.8823C114.619 27.3106 115.814 26.382 116.686 25.2152C115.04 26.0455 113.697 26.5908 111.913 26.5908C108.523 26.5908 105.254 24.1449 104.111 19.6487L116.086 14.8083C115.395 12.3421 113.444 9.85864 108.962 9.85864H108.961ZM108.178 11.1813C110.445 11.1813 112.084 13.0461 112.084 14.5059C112.084 14.978 111.788 15.2272 111.202 15.4578L103.841 18.435C103.841 18.435 103.642 17.508 103.642 16.5063C103.642 12.3046 106.68 11.1813 108.178 11.1813Z" fill="url(#paint4_linear_0_1)"/>
<path id="Vector_6" d="M61.9381 9.85864C55.627 9.85864 51.7167 14.4702 51.7167 19.3652C51.7167 23.5902 54.8669 28.6066 61.2495 28.6066C67.3892 28.6066 71.1563 23.986 71.1563 19.0053C71.1563 14.3659 67.4749 9.86035 61.9381 9.86035V9.85864ZM60.8911 11.2031C65.3406 11.2031 67.3221 17.0001 67.3221 21.1348C67.3221 27.2839 62.7091 27.4054 62.1576 27.4054C60.0467 27.4054 58.5713 26.1296 57.4669 24.4563C56.4948 22.9141 55.5444 20.049 55.5444 17.2494C55.5444 14.4607 56.4572 13.0991 57.8938 12.0974C59.0684 11.3465 60.1683 11.2031 60.8895 11.2031H60.8911Z" fill="url(#paint5_linear_0_1)"/>
</g>
</g>
</g>
</g>
<defs>
<linearGradient id="paint0_linear_0_1" x1="14.2655" y1="-0.0708445" x2="14.2655" y2="29.004" gradientUnits="userSpaceOnUse">
<stop stop-color="#196EEF"/>
<stop offset="0.5" stop-color="#186DEE"/>
<stop offset="1" stop-color="#1065E7"/>
</linearGradient>
<linearGradient id="paint1_linear_0_1" x1="39.9507" y1="9.81423" x2="39.9507" y2="28.6145" gradientUnits="userSpaceOnUse">
<stop stop-color="#DE5744"/>
<stop offset="0.5" stop-color="#DB4632"/>
<stop offset="1" stop-color="#D13D29"/>
</linearGradient>
<linearGradient id="paint2_linear_0_1" x1="80.5574" y1="9.81433" x2="80.5574" y2="40.0004" gradientUnits="userSpaceOnUse">
<stop stop-color="#1A6FEF"/>
<stop offset="0.25" stop-color="#1E72EF"/>
<stop offset="0.5" stop-color="#166BEC"/>
<stop offset="0.75" stop-color="#1267E9"/>
<stop offset="1" stop-color="#1063E5" stop-opacity="0.87"/>
</linearGradient>
<linearGradient id="paint3_linear_0_1" x1="95.0378" y1="0.457397" x2="95.0378" y2="28.0864" gradientUnits="userSpaceOnUse">
<stop stop-color="#0AA561"/>
<stop offset="0.5" stop-color="#009B58"/>
<stop offset="1" stop-color="#00914B"/>
</linearGradient>
<linearGradient id="paint4_linear_0_1" x1="108.398" y1="9.81423" x2="108.398" y2="28.5627" gradientUnits="userSpaceOnUse">
<stop stop-color="#DE5644"/>
<stop offset="0.5" stop-color="#DA4531"/>
<stop offset="1" stop-color="#CE3A28"/>
</linearGradient>
<linearGradient id="paint5_linear_0_1" x1="61.3663" y1="9.85506" x2="61.3663" y2="28.5772" gradientUnits="userSpaceOnUse">
<stop stop-color="#FFC01A"/>
<stop offset="0.5" stop-color="#FFBA03"/>
<stop offset="1" stop-color="#FFB300"/>
</linearGradient>
<clipPath id="clip0_0_1">
<rect width="1920" height="3315" fill="white" transform="translate(-340 -1723)"/>
</clipPath>
<clipPath id="clip1_0_1">
<rect width="116.686" height="40" fill="white"/>
</clipPath>
</defs>
</svg>
