<svg width="192" height="25" viewBox="0 0 192 25" fill="none" xmlns="http://www.w3.org/2000/svg">
<g clip-path="url(#clip0_31_814)">
<path d="M163.789 9.92041V24.9854H168.604V14.9421H186.215V24.9854H191.03V9.92041H163.789ZM168.054 5.03632H186.627C189.241 4.55479 191.099 2.21593 191.649 0.0146484H163.032C163.583 2.21593 165.509 4.486 168.054 5.03632ZM149.137 24.9854C151.545 23.9536 152.852 22.165 153.402 20.1013H131.733V0.0834385H126.849V24.9854H149.137ZM90.7341 4.96753H107.932C110.546 4.21084 112.678 2.21593 113.228 0.0834385H85.9876V14.8045H108.276V19.9638H90.8029C88.0513 20.7204 85.7125 22.5778 84.543 24.9854H113.091V9.92041H90.8029L90.7341 4.96753ZM48.3595 5.03632H66.9328C69.5468 4.55479 71.4729 2.21593 71.9545 0.0146484H43.269C43.8194 2.21593 45.7455 4.486 48.3595 5.03632ZM48.3595 14.8733H66.9328C69.5468 14.3918 71.4729 12.0529 71.9545 9.85162H43.269C43.8194 12.0529 45.7455 14.323 48.3595 14.8733ZM48.3595 24.9854H66.9328C69.5468 24.5039 71.4729 22.165 71.9545 19.9638H43.269C43.8194 22.165 45.7455 24.5039 48.3595 24.9854Z" fill="#5E5E5E"/>
<path d="M0 0.0834385C0.55032 2.28472 2.47644 4.486 5.02167 5.03632H12.8637L13.2765 5.1739V24.9166H18.1606V5.1739L18.5733 5.03632H26.4154C29.0294 4.34842 30.8867 2.28472 31.437 0.0834385V0.0146484L0 0.0834385Z" fill="#5E5E5E"/>
</g>
<defs>
<clipPath id="clip0_31_814">
<rect width="191.718" height="25" fill="white"/>
</clipPath>
</defs>
</svg>
